<mxfile host="app.diagrams.net" modified="2023-05-25T14:59:12.625Z" agent="Mozilla/5.0 (Windows NT 10.0; Win64; x64) AppleWebKit/537.36 (KHTML, like Gecko) Chrome/113.0.0.0 Safari/537.36" version="21.3.2" etag="_5vRI0r3O8wq99uKn0wn" type="github">
  <diagram name="第 1 页" id="3lclKxbu_5-sdgzdfqV3">
    <mxGraphModel>
      <root>
        <mxCell id="0" />
        <mxCell id="1" parent="0" />
      </root>
    </mxGraphModel>
  </diagram>
</mxfile>
